<?xml version="1.0" encoding="UTF-8"?>
<svg version="1.1" xmlns="http://www.w3.org/2000/svg" width="200" height="200" viewBox="0 0 200 200">
<path d="M0 0 C3.57863693 0.12416979 7.13563157 0.10276674 10.71582031 0.06323242 C27.02999511 0.15882357 27.02999511 0.15882357 32.46435547 4.0847168 C34.50526499 6.9046331 35.89727959 9.64129215 37.31738281 12.8112793 C38.987584 15.09986167 38.987584 15.09986167 40.80957031 17.1472168 C41.36394775 17.81180908 41.9183252 18.47640137 42.48950195 19.16113281 C43.05145264 19.82943115 43.61340332 20.49772949 44.19238281 21.1862793 C49.18336041 27.18196441 54.01051843 33.25660888 58.73144531 39.4675293 C62.36326914 44.20594702 66.15877251 48.813823 69.94067383 53.43261719 C71.40449288 55.22157967 72.86245234 57.01508565 74.31738281 58.8112793 C74.93226563 59.56924805 75.54714844 60.3272168 76.18066406 61.1081543 C77.72535708 63.42253972 77.61137876 65.09181678 77.31738281 67.8112793 C75.31300691 69.8156552 71.3031313 68.99911049 68.55566406 69.0144043 C67.77225143 69.02010437 66.98883881 69.02580444 66.1816864 69.03167725 C64.51802934 69.0411447 62.85435338 69.04766813 61.19067383 69.05151367 C58.65770051 69.06117321 56.12555449 69.09215968 53.59277344 69.1237793 C51.9762418 69.13031386 50.35970435 69.13556255 48.74316406 69.1394043 C47.61313713 69.1579245 47.61313713 69.1579245 46.46028137 69.17681885 C40.48594838 69.15181479 36.44691847 67.80330567 32.07910156 63.7175293 C31.39460938 62.9234668 30.71011719 62.1294043 30.00488281 61.3112793 C29.23660156 60.42569336 28.46832031 59.54010742 27.67675781 58.62768555 C24.5930922 54.94668736 21.55256826 51.23259135 18.52832031 47.50268555 C13.17755843 40.27832383 13.17755843 40.27832383 6.31738281 34.8112793 C4.77714285 34.74177388 3.23403294 34.72675572 1.69238281 34.7487793 C0.87511719 34.75780273 0.05785156 34.76682617 -0.78417969 34.77612305 C-1.41066406 34.78772461 -2.03714844 34.79932617 -2.68261719 34.8112793 C-2.92882812 35.37717773 -3.17503906 35.94307617 -3.42871094 36.52612305 C-4.89797943 39.20376188 -6.66014154 41.14171542 -8.74511719 43.3737793 C-12.07023376 46.99826328 -15.26792251 50.68150246 -18.37011719 54.4987793 C-19.48 55.86389648 -19.48 55.86389648 -20.61230469 57.2565918 C-21.89007761 58.83331536 -23.16642301 60.41119851 -24.44042969 61.9909668 C-29.00239488 67.51575881 -29.00239488 67.51575881 -32.68261719 68.8112793 C-35.5334117 68.99187015 -38.28297138 69.06780702 -41.13183594 69.04174805 C-41.94505814 69.04128983 -42.75828033 69.0408316 -43.59614563 69.0403595 C-45.3099616 69.03734473 -47.02377501 69.02948167 -48.73754883 69.01708984 C-51.37102877 68.99877296 -54.00415817 68.99658067 -56.63769531 68.99682617 C-58.30241192 68.99191302 -59.96712613 68.98608559 -61.63183594 68.97924805 C-62.81926643 68.97757881 -62.81926643 68.97757881 -64.03068542 68.97587585 C-69.56654892 68.92734757 -69.56654892 68.92734757 -70.68261719 67.8112793 C-71.22995992 65.14422742 -71.07416099 63.43803754 -69.62109375 61.11206055 C-68.07057918 59.1265552 -66.45731314 57.21519669 -64.80761719 55.3112793 C-63.60045033 53.87498641 -62.39473572 52.43747178 -61.19042969 50.9987793 C-60.59133789 50.28850586 -59.99224609 49.57823242 -59.375 48.84643555 C-57.05872456 46.06102412 -54.87016778 43.19913486 -52.68261719 40.3112793 C-48.52455098 34.85465843 -44.23442321 29.52193185 -39.85058594 24.24487305 C-39.35429688 23.6415918 -38.85800781 23.03831055 -38.34667969 22.41674805 C-37.77949219 21.75634521 -37.21230469 21.09594238 -36.62792969 20.41552734 C-34.99195233 18.22539551 -33.79038459 16.19449208 -32.51855469 13.79492188 C-24.61373808 -0.08638077 -15.18562515 -0.56752025 0 0 Z M-20.12011719 5.6862793 C-21.88008067 7.64022655 -21.88008067 7.64022655 -21.68261719 9.8112793 C-17.17459117 8.55322553 -14.19133599 6.90720765 -10.68261719 3.8112793 C-15.77443302 3.34760666 -15.77443302 3.34760666 -20.12011719 5.6862793 Z M17.31738281 3.8112793 C20.51728789 6.55405508 23.32237664 8.44156289 27.31738281 9.8112793 C27.00800781 9.1925293 26.69863281 8.5737793 26.37988281 7.9362793 C25.69238281 6.5612793 25.00488281 5.1862793 24.31738281 3.8112793 C22.00738281 3.8112793 19.69738281 3.8112793 17.31738281 3.8112793 Z M-0.68261719 5.8112793 C-0.68261719 6.4712793 -0.68261719 7.1312793 -0.68261719 7.8112793 C2.28738281 7.8112793 5.25738281 7.8112793 8.31738281 7.8112793 C7.32738281 6.8212793 6.33738281 5.8312793 5.31738281 4.8112793 C1.54098961 4.5131369 1.54098961 4.5131369 -0.68261719 5.8112793 Z M2.31738281 9.8112793 C1.65738281 10.4712793 0.99738281 11.1312793 0.31738281 11.8112793 C2.62738281 12.1412793 4.93738281 12.4712793 7.31738281 12.8112793 C7.31738281 12.1512793 7.31738281 11.4912793 7.31738281 10.8112793 C4.92018849 10.13169327 4.92018849 10.13169327 2.31738281 9.8112793 Z M22.31738281 10.8112793 C25.52556526 14.69862298 25.52556526 14.69862298 30.12988281 16.1237793 C31.21269531 15.9690918 31.21269531 15.9690918 32.31738281 15.8112793 C31.90732611 13.73192723 31.90732611 13.73192723 30.31738281 11.8112793 C27.62079829 11.12337508 25.11568091 10.99181466 22.31738281 10.8112793 Z M-21.74511719 11.6237793 C-22.45796875 11.77459961 -23.17082031 11.92541992 -23.90527344 12.08081055 C-24.49179688 12.32186523 -25.07832031 12.56291992 -25.68261719 12.8112793 C-26.01261719 13.8012793 -26.34261719 14.7912793 -26.68261719 15.8112793 C-23.35061534 16.22899734 -23.35061534 16.22899734 -19.68261719 15.8112793 C-17.21052923 13.45295157 -17.21052923 13.45295157 -15.68261719 10.8112793 C-17.8323462 10.8112793 -19.64774647 11.1555822 -21.74511719 11.6237793 Z M-12.68261719 12.8112793 C-13.46636719 13.6156543 -14.25011719 14.4200293 -15.05761719 15.2487793 C-18.07991846 17.88228938 -20.34705229 18.14713824 -24.30761719 18.3112793 C-28.84841076 18.44044314 -28.84841076 18.44044314 -32.37011719 21.3737793 C-32.80324219 22.1781543 -33.23636719 22.9825293 -33.68261719 23.8112793 C-26.17381939 24.66217189 -26.17381939 24.66217189 -19.17480469 22.39331055 C-15.83415412 19.5026 -13.49405849 16.8646034 -11.68261719 12.8112793 C-12.01261719 12.8112793 -12.34261719 12.8112793 -12.68261719 12.8112793 Z M-0.36621094 16.3112793 C-0.800625 16.8062793 -1.23503906 17.3012793 -1.68261719 17.8112793 C-1.07933594 17.86026367 -0.47605469 17.90924805 0.14550781 17.9597168 C0.94472656 18.03448242 1.74394531 18.10924805 2.56738281 18.1862793 C3.35628906 18.25588867 4.14519531 18.32549805 4.95800781 18.3972168 C7.40325981 18.82635043 9.16575184 19.59728567 11.31738281 20.8112793 C9.17548493 17.59843247 7.98245879 16.02844696 4.25488281 14.8112793 C1.30711388 14.48559691 1.30711388 14.48559691 -0.36621094 16.3112793 Z M20.31738281 14.8112793 C21.76313549 18.1847022 23.52229142 20.42723075 26.31738281 22.8112793 C29.27552687 23.79313137 31.96509782 23.91940114 35.06738281 23.8737793 C36.26621094 23.86024414 36.26621094 23.86024414 37.48925781 23.84643555 C38.09253906 23.83483398 38.69582031 23.82323242 39.31738281 23.8112793 C38.53045232 21.18383044 38.53045232 21.18383044 36.31738281 18.8112793 C33.8100538 18.30273814 31.39088753 18.18077147 28.83691406 18.05737305 C25.54292312 17.7356344 23.12592108 16.51118404 20.31738281 14.8112793 Z M-8.62011719 27.8112793 C-9.30396484 28.47901367 -9.9878125 29.14674805 -10.69238281 29.8347168 C-12.37164778 31.47875243 -14.03352928 33.13706546 -15.68261719 34.8112793 C-11.8712785 34.8112793 -10.66407036 33.60182749 -7.62011719 31.3737793 C-3.20897726 28.1674441 -0.6234941 26.36735108 5.00878906 26.37768555 C9.43150571 27.20834807 12.8276916 30.09707502 16.31738281 32.8112793 C16.97738281 32.4812793 17.63738281 32.1512793 18.31738281 31.8112793 C16.48215495 29.95495686 14.62805524 28.12863609 12.75488281 26.3112793 C12.24119141 25.78663086 11.7275 25.26198242 11.19824219 24.72143555 C8.42334497 22.06718603 6.72916838 20.90572553 2.91113281 20.0300293 C-2.30029649 21.16294871 -4.95386743 24.08386541 -8.62011719 27.8112793 Z M25.31738281 25.8112793 C28.27862836 28.77252484 31.11923261 28.77085588 35.21191406 28.90893555 C36.17484375 28.89733398 37.13777344 28.88573242 38.12988281 28.8737793 C39.10570312 28.86475586 40.08152344 28.85573242 41.08691406 28.84643555 C41.82296875 28.83483398 42.55902344 28.82323242 43.31738281 28.8112793 C43.31738281 28.1512793 43.31738281 27.4912793 43.31738281 26.8112793 C37.37738281 26.4812793 31.43738281 26.1512793 25.31738281 25.8112793 Z M-28.74511719 26.1237793 C-29.49083984 26.15922852 -30.2365625 26.19467773 -31.00488281 26.23120117 C-32.90380002 26.34675744 -34.79542967 26.5709398 -36.68261719 26.8112793 C-37.01261719 27.4712793 -37.34261719 28.1312793 -37.68261719 28.8112793 C-35.45372222 28.86556903 -33.22444247 28.90420267 -30.99511719 28.9362793 C-29.75375 28.95948242 -28.51238281 28.98268555 -27.23339844 29.0065918 C-23.87023862 28.82159951 -21.68405848 28.26895824 -18.68261719 26.8112793 C-21.881974 25.21160089 -25.26128117 25.90282358 -28.74511719 26.1237793 Z M18.31738281 27.8112793 C18.64738281 28.4712793 18.97738281 29.1312793 19.31738281 29.8112793 C19.97738281 29.4812793 20.63738281 29.1512793 21.31738281 28.8112793 C20.32738281 28.4812793 19.33738281 28.1512793 18.31738281 27.8112793 Z M-1.68261719 30.8112793 C1.61738281 30.8112793 4.91738281 30.8112793 8.31738281 30.8112793 C6.43238011 28.49564843 6.43238011 28.49564843 3.31738281 28.5612793 C0.20238552 28.49564843 0.20238552 28.49564843 -1.68261719 30.8112793 Z M24.31738281 32.8112793 C26.57460278 35.93401281 27.91218649 37.57703371 31.79248047 38.22387695 C34.75162795 38.30313527 37.67228854 38.24677586 40.62988281 38.1237793 C41.65662109 38.1012207 42.68335938 38.07866211 43.74121094 38.05541992 C46.26810072 37.99665504 48.79198537 37.91455779 51.31738281 37.8112793 C50.18617682 35.73536279 50.18617682 35.73536279 48.31738281 33.8112793 C45.7183287 33.16964257 45.7183287 33.16964257 42.77441406 33.2019043 C41.16469727 33.15356445 41.16469727 33.15356445 39.52246094 33.10424805 C38.40291016 33.09006836 37.28335938 33.07588867 36.12988281 33.0612793 C34.99873047 33.03163086 33.86757812 33.00198242 32.70214844 32.97143555 C29.90715448 32.90067621 27.11299753 32.84800954 24.31738281 32.8112793 Z M-43.50170898 35.83569336 C-43.89140869 36.48763672 -44.2811084 37.13958008 -44.68261719 37.8112793 C-41.26623765 37.92760443 -37.85036821 37.99856827 -34.43261719 38.0612793 C-33.46453125 38.09479492 -32.49644531 38.12831055 -31.49902344 38.1628418 C-25.85308491 38.35858861 -25.85308491 38.35858861 -21.01074219 35.7956543 C-20.57246094 35.14081055 -20.13417969 34.4859668 -19.68261719 33.8112793 C-23.28651383 33.69526925 -26.88993185 33.62409522 -30.49511719 33.5612793 C-31.51927734 33.52776367 -32.5434375 33.49424805 -33.59863281 33.4597168 C-35.07299805 33.44038086 -35.07299805 33.44038086 -36.57714844 33.4206543 C-37.48311768 33.39970703 -38.38908691 33.37875977 -39.32250977 33.35717773 C-41.86032407 33.59903542 -41.86032407 33.59903542 -43.50170898 35.83569336 Z M-18.68261719 36.8112793 C-19.01261719 37.4712793 -19.34261719 38.1312793 -19.68261719 38.8112793 C-18.69261719 38.4812793 -17.70261719 38.1512793 -16.68261719 37.8112793 C-17.34261719 37.4812793 -18.00261719 37.1512793 -18.68261719 36.8112793 Z M16.31738281 36.8112793 C17.30738281 38.2962793 17.30738281 38.2962793 18.31738281 39.8112793 C18.97738281 39.4812793 19.63738281 39.1512793 20.31738281 38.8112793 C18.99738281 38.1512793 17.67738281 37.4912793 16.31738281 36.8112793 Z M20.31738281 39.8112793 C21.30738281 41.2962793 21.30738281 41.2962793 22.31738281 42.8112793 C22.97738281 42.4812793 23.63738281 42.1512793 24.31738281 41.8112793 C22.99738281 41.1512793 21.67738281 40.4912793 20.31738281 39.8112793 Z M-47.68261719 40.8112793 C-48.67261719 42.2962793 -48.67261719 42.2962793 -49.68261719 43.8112793 C-47.47243503 46.02146145 -42.46184338 44.99658335 -39.49511719 44.9987793 C-38.21797852 45.01714844 -38.21797852 45.01714844 -36.91503906 45.03588867 C-32.1220866 45.04700921 -28.14291288 44.78823773 -23.68261719 42.8112793 C-23.02261719 42.1512793 -22.36261719 41.4912793 -21.68261719 40.8112793 C-25.97415741 40.72452309 -30.26547386 40.6709704 -34.55761719 40.6237793 C-35.7809375 40.59864258 -37.00425781 40.57350586 -38.26464844 40.54760742 C-39.43125 40.53793945 -40.59785156 40.52827148 -41.79980469 40.51831055 C-42.87858887 40.5026001 -43.95737305 40.48688965 -45.06884766 40.47070312 C-46.36266357 40.63928833 -46.36266357 40.63928833 -47.68261719 40.8112793 Z M29.31738281 40.8112793 C33.50928756 45.00318404 37.15167786 44.843991 42.84082031 44.90893555 C44.45803691 44.9023615 46.07523975 44.89054394 47.69238281 44.8737793 C48.93955078 44.86701172 48.93955078 44.86701172 50.21191406 44.86010742 C52.24710178 44.84841094 54.28225204 44.83047864 56.31738281 44.8112793 C55.65738281 43.4912793 54.99738281 42.1712793 54.31738281 40.8112793 C46.06738281 40.8112793 37.81738281 40.8112793 29.31738281 40.8112793 Z M-19.68261719 42.8112793 C-20.01261719 43.4712793 -20.34261719 44.1312793 -20.68261719 44.8112793 C-19.69261719 44.4812793 -18.70261719 44.1512793 -17.68261719 43.8112793 C-18.34261719 43.4812793 -19.00261719 43.1512793 -19.68261719 42.8112793 Z M24.31738281 42.8112793 C30.55610313 49.5167258 30.55610313 49.5167258 39.04467773 51.92480469 C40.1182251 51.91956787 41.19177246 51.91433105 42.29785156 51.90893555 C44.04291992 51.90410156 44.04291992 51.90410156 45.82324219 51.89916992 C47.6456543 51.88660156 47.6456543 51.88660156 49.50488281 51.8737793 C51.34469727 51.86701172 51.34469727 51.86701172 53.22167969 51.86010742 C56.2536295 51.84830995 59.28548187 51.8318485 62.31738281 51.8112793 C61.14095994 49.2496367 61.14095994 49.2496367 59.31738281 46.8112793 C57.16123853 46.15805816 57.16123853 46.15805816 54.74707031 46.39331055 C53.40128906 46.43101563 53.40128906 46.43101563 52.02832031 46.46948242 C51.09246094 46.52040039 50.15660156 46.57131836 49.19238281 46.6237793 C40.30025565 47.0068441 32.5366392 46.52320154 24.31738281 42.8112793 Z M-26.07714844 46.2644043 C-29.26575278 46.74804959 -31.98803982 46.8254836 -35.19433594 46.7331543 C-36.19916016 46.70737305 -37.20398438 46.6815918 -38.23925781 46.6550293 C-40.33872856 46.59216305 -42.4377899 46.51385645 -44.53613281 46.4206543 C-45.53708984 46.4000293 -46.53804687 46.3794043 -47.56933594 46.3581543 C-48.47901123 46.32560547 -49.38868652 46.29305664 -50.32592773 46.25952148 C-52.95247468 46.60220359 -52.95247468 46.60220359 -54.50219727 49.33959961 C-55.08650513 50.56308105 -55.08650513 50.56308105 -55.68261719 51.8112793 C-51.32880626 51.95719954 -46.97562908 52.04556333 -42.62011719 52.1237793 C-41.39099609 52.16567383 -40.161875 52.20756836 -38.89550781 52.25073242 C-31.43128303 52.35132844 -27.19784345 52.01509605 -21.68261719 46.8112793 C-23.67972841 45.56034068 -23.67972841 45.56034068 -26.07714844 46.2644043 Z M-57.68261719 53.8112793 C-58.67261719 55.2962793 -58.67261719 55.2962793 -59.68261719 56.8112793 C-57.18387353 59.31002296 -50.41357475 57.99682133 -47.05761719 57.9987793 C-45.97609375 58.01102539 -44.89457031 58.02327148 -43.78027344 58.03588867 C-38.05712897 58.04637062 -33.03358536 57.94716995 -27.68261719 55.8112793 C-27.35261719 55.1512793 -27.02261719 54.4912793 -26.68261719 53.8112793 C-31.06083628 53.7372074 -35.43872501 53.68271555 -39.81738281 53.64648438 C-41.30735628 53.63138329 -42.79728519 53.61090071 -44.28710938 53.58496094 C-46.42686949 53.54863345 -48.56604285 53.53156709 -50.70605469 53.51831055 C-51.99431152 53.5026001 -53.28256836 53.48688965 -54.60986328 53.47070312 C-55.62387207 53.58309326 -56.63788086 53.6954834 -57.68261719 53.8112793 Z M32.31738281 53.8112793 C38.3467488 58.94740588 45.48208497 57.99414418 53.00488281 57.9987793 C54.06255859 58.01102539 55.12023437 58.02327148 56.20996094 58.03588867 C57.72299805 58.03878906 57.72299805 58.03878906 59.26660156 58.04174805 C60.18787842 58.04585693 61.10915527 58.04996582 62.05834961 58.05419922 C64.51832082 58.0286429 64.51832082 58.0286429 66.31738281 55.8112793 C62.59197619 53.32767488 60.68675308 53.5796926 56.24316406 53.6159668 C55.21741524 53.62021164 55.21741524 53.62021164 54.17094421 53.62454224 C51.99041117 53.63572246 49.81029137 53.66082238 47.62988281 53.6862793 C46.15007104 53.69631192 44.67025283 53.70543728 43.19042969 53.71362305 C39.56594681 53.73565449 35.94170515 53.77016928 32.31738281 53.8112793 Z M-62.68261719 59.8112793 C-62.35261719 60.4712793 -62.02261719 61.1312793 -61.68261719 61.8112793 C-57.44679391 61.86066558 -53.21112254 61.89699192 -48.97509766 61.92114258 C-47.53366172 61.93120893 -46.09224624 61.9448631 -44.65087891 61.9621582 C-42.58067785 61.98637941 -40.51074642 61.99775571 -38.44042969 62.0065918 C-37.19406738 62.01706543 -35.94770508 62.02753906 -34.66357422 62.03833008 C-31.56490088 62.12780422 -31.56490088 62.12780422 -29.68261719 59.8112793 C-40.57261719 59.8112793 -51.46261719 59.8112793 -62.68261719 59.8112793 Z M36.31738281 59.8112793 C40.49485779 61.90001679 42.28068534 62.04797655 46.83300781 62.0065918 C48.08339844 62.00014648 49.33378906 61.99370117 50.62207031 61.98706055 C51.92402344 61.97030273 53.22597656 61.95354492 54.56738281 61.9362793 C56.54351562 61.92274414 56.54351562 61.92274414 58.55957031 61.90893555 C61.81235743 61.88536463 65.0647787 61.85245952 68.31738281 61.8112793 C68.64738281 61.1512793 68.97738281 60.4912793 69.31738281 59.8112793 C58.42738281 59.8112793 47.53738281 59.8112793 36.31738281 59.8112793 Z M-66.68261719 61.8112793 C-67.34261719 63.1312793 -68.00261719 64.4512793 -68.68261719 65.8112793 C-66.74663734 67.74725915 -63.1121593 66.97509345 -60.47167969 66.97924805 C-59.74774017 66.98257645 -59.02380066 66.98590485 -58.27792358 66.98933411 C-56.74290606 66.99440668 -55.20787746 66.99674233 -53.67285156 66.99658203 C-51.3243587 66.99876374 -48.97633904 67.01690216 -46.62792969 67.03588867 C-45.13834796 67.03882348 -43.648764 67.04080769 -42.15917969 67.04174805 C-41.10435898 67.05252632 -41.10435898 67.05252632 -40.02822876 67.06352234 C-36.3496703 67.04630226 -34.83052744 66.90988614 -31.68261719 64.8112793 C-32.60075195 64.79145996 -33.51888672 64.77164063 -34.46484375 64.7512207 C-37.87933543 64.67300974 -41.29339421 64.58631346 -44.70751953 64.49389648 C-46.18367255 64.45567264 -47.65991662 64.42080827 -49.13623047 64.3894043 C-51.26139813 64.34360944 -53.38594261 64.28564093 -55.51074219 64.2253418 C-56.78852539 64.1939209 -58.06630859 64.1625 -59.3828125 64.13012695 C-62.40799043 63.83781544 -64.14310828 63.4054644 -66.68261719 61.8112793 Z M72.31738281 61.8112793 C71.32738281 62.4712793 70.33738281 63.1312793 69.31738281 63.8112793 C66.22290039 64.13012695 66.22290039 64.13012695 62.46191406 64.2253418 C61.4694593 64.25439102 61.4694593 64.25439102 60.45695496 64.2840271 C58.34806117 64.34370616 56.23911244 64.39016017 54.12988281 64.4362793 C52.69821866 64.47446995 51.26657723 64.51352233 49.83496094 64.5534668 C46.3293097 64.64939702 42.82348837 64.73347127 39.31738281 64.8112793 C43.00742482 67.16022674 46.18449311 67.04187675 50.48925781 67.0065918 C51.17167542 67.0037619 51.85409302 67.00093201 52.55718994 66.99801636 C54.72743589 66.98686028 56.89726252 66.96176487 59.06738281 66.9362793 C60.54263725 66.92624355 62.01789819 66.91711874 63.49316406 66.90893555 C67.10137223 66.88693617 70.70933657 66.85243813 74.31738281 66.8112793 C74.31738281 65.8212793 74.31738281 64.8312793 74.31738281 63.8112793 C73.65738281 63.1512793 72.99738281 62.4912793 72.31738281 61.8112793 Z " fill="#FFFFFF" transform="translate(95.6826171875,72.188720703125)"/>
<path d="M0 0 C1.17511894 -0.00855011 1.17511894 -0.00855011 2.37397766 -0.01727295 C4.03763472 -0.0267404 5.70131068 -0.03326383 7.36499023 -0.03710938 C9.89796355 -0.04676892 12.43010958 -0.07775538 14.96289062 -0.109375 C16.57942227 -0.11590956 18.19595972 -0.12115825 19.8125 -0.125 C20.56585129 -0.1373468 21.31920258 -0.1496936 22.09538269 -0.16241455 C28.06971568 -0.1374105 32.10874559 1.21109863 36.4765625 5.296875 C37.50330078 6.48796875 37.50330078 6.48796875 38.55078125 7.703125 C39.3190625 8.58871094 40.08734375 9.47429688 40.87890625 10.38671875 C43.96257186 14.06771694 47.0030958 17.78181294 50.02734375 21.51171875 C55.37810563 28.73608047 55.37810563 28.73608047 62.23828125 34.203125 C63.77852121 34.27263041 65.32163113 34.28764857 66.86328125 34.265625 C67.68054688 34.25660156 68.4978125 34.24757812 69.33984375 34.23828125 C69.96632813 34.22667969 70.5928125 34.21507812 71.23828125 34.203125 C71.48449219 33.63722656 71.73070313 33.07132813 71.984375 32.48828125 C73.45364349 29.81064242 75.2158056 27.87268888 77.30078125 25.640625 C80.62589783 22.01614101 83.82358658 18.33290184 86.92578125 14.515625 C87.66570312 13.60554687 88.405625 12.69546875 89.16796875 11.7578125 C90.44574167 10.18108893 91.72208707 8.60320578 92.99609375 7.0234375 C97.55805894 1.49864548 97.55805894 1.49864548 101.23828125 0.203125 C104.08907576 0.02253415 106.83863544 -0.05340272 109.6875 -0.02734375 C110.5007222 -0.02688553 111.3139444 -0.02642731 112.15180969 -0.0259552 C113.86562566 -0.02294044 115.57943907 -0.01507738 117.29321289 -0.00268555 C119.92669283 0.01563134 122.55982223 0.01782363 125.19335938 0.01757812 C126.85807598 0.02249127 128.52279019 0.0283187 130.1875 0.03515625 C131.3749305 0.03682549 131.3749305 0.03682549 132.58634949 0.03852844 C138.12221298 0.08705673 138.12221298 0.08705673 139.23828125 1.203125 C139.78562399 3.87017687 139.62982505 5.57636676 138.17675781 7.90234375 C136.62624325 9.88784909 135.0129772 11.79920761 133.36328125 13.703125 C132.15611439 15.13941789 130.95039979 16.57693252 129.74609375 18.015625 C128.84745605 19.08103516 128.84745605 19.08103516 127.93066406 20.16796875 C125.61438863 22.95338018 123.42583184 25.81526943 121.23828125 28.703125 C117.08021504 34.15974587 112.79008727 39.49247245 108.40625 44.76953125 C107.90996094 45.3728125 107.41367188 45.97609375 106.90234375 46.59765625 C106.0515625 47.5882605 106.0515625 47.5882605 105.18359375 48.59887695 C103.54761639 50.78900879 102.34604865 52.81991222 101.07421875 55.21948242 C97.92803963 60.74434995 94.81734135 65.99097491 88.53765869 68.11776733 C81.89693862 69.3333182 75.28158062 69.26576661 68.55566406 69.0144043 C64.97702713 68.89023451 61.4200325 68.91163755 57.83984375 68.95117188 C41.52566896 68.85558073 41.52566896 68.85558073 36.09130859 64.9296875 C34.05039907 62.10977119 32.65838447 59.37311215 31.23828125 56.203125 C29.56808007 53.91454263 29.56808007 53.91454263 27.74609375 51.8671875 C26.91452759 50.87029907 26.91452759 50.87029907 26.06616211 49.85327148 C25.22323608 48.85082397 25.22323608 48.85082397 24.36328125 47.828125 C19.37230365 41.83243989 14.54514563 35.75779542 9.82421875 29.546875 C6.19239492 24.80845728 2.39689155 20.20058129 -1.38500977 15.58178711 C-2.84882882 13.79282463 -4.30678828 11.99931865 -5.76171875 10.203125 C-6.37660156 9.44515625 -6.99148437 8.6871875 -7.625 7.90625 C-9.16969302 5.59186458 -9.0557147 3.92258751 -8.76171875 1.203125 C-6.75734285 -0.8012509 -2.74746724 0.01529381 0 0 Z M-5.76171875 2.203125 C-5.76171875 3.193125 -5.76171875 4.183125 -5.76171875 5.203125 C-5.10171875 5.863125 -4.44171875 6.523125 -3.76171875 7.203125 C-2.77171875 6.543125 -1.78171875 5.883125 -0.76171875 5.203125 C2.33276367 4.88427734 2.33276367 4.88427734 6.09375 4.7890625 C7.08620476 4.76001328 7.08620476 4.76001328 8.09870911 4.7303772 C10.20760289 4.67069813 12.31655162 4.62424413 14.42578125 4.578125 C15.8574454 4.53993434 17.28908684 4.50088197 18.72070312 4.4609375 C22.22635437 4.36500727 25.7321757 4.28093303 29.23828125 4.203125 C25.54823924 1.85417755 22.37117095 1.97252754 18.06640625 2.0078125 C17.04277985 2.01205734 17.04277985 2.01205734 15.99847412 2.01638794 C13.82822818 2.02754402 11.65840154 2.05263943 9.48828125 2.078125 C8.01302681 2.08816074 6.53776588 2.09728556 5.0625 2.10546875 C1.45429183 2.12746813 -2.1536725 2.16196617 -5.76171875 2.203125 Z M100.23828125 4.203125 C101.15641602 4.22294434 102.07455078 4.24276367 103.02050781 4.26318359 C106.4349995 4.34139455 109.84905827 4.42809084 113.26318359 4.52050781 C114.73933661 4.55873166 116.21558068 4.59359603 117.69189453 4.625 C119.81706219 4.67079486 121.94160667 4.72876337 124.06640625 4.7890625 C125.34418945 4.8204834 126.62197266 4.8519043 127.93847656 4.88427734 C130.96365449 5.17658885 132.69877234 5.60893989 135.23828125 7.203125 C135.89828125 5.883125 136.55828125 4.563125 137.23828125 3.203125 C135.3023014 1.26714515 131.66782336 2.03931084 129.02734375 2.03515625 C128.30340424 2.03182785 127.57946472 2.02849945 126.83358765 2.02507019 C125.29857012 2.01999761 123.76354153 2.01766197 122.22851562 2.01782227 C119.88002276 2.01564055 117.5320031 1.99750213 115.18359375 1.97851562 C113.69401203 1.97558081 112.20442807 1.9735966 110.71484375 1.97265625 C109.66002304 1.96187798 109.66002304 1.96187798 108.58389282 1.95088196 C104.90533436 1.96810204 103.38619151 2.10451816 100.23828125 4.203125 Z M0.23828125 7.203125 C-0.09171875 7.863125 -0.42171875 8.523125 -0.76171875 9.203125 C10.12828125 9.203125 21.01828125 9.203125 32.23828125 9.203125 C28.06080627 7.11438751 26.27497872 6.96642775 21.72265625 7.0078125 C20.47226562 7.01425781 19.221875 7.02070312 17.93359375 7.02734375 C16.63164063 7.04410156 15.3296875 7.06085937 13.98828125 7.078125 C12.01214844 7.09166016 12.01214844 7.09166016 9.99609375 7.10546875 C6.74330663 7.12903967 3.49088536 7.16194478 0.23828125 7.203125 Z M98.23828125 9.203125 C109.12828125 9.203125 120.01828125 9.203125 131.23828125 9.203125 C130.74328125 8.213125 130.74328125 8.213125 130.23828125 7.203125 C126.00245798 7.15373872 121.7667866 7.11741237 117.53076172 7.09326172 C116.08932578 7.08319537 114.6479103 7.0695412 113.20654297 7.05224609 C111.13634191 7.02802488 109.06641049 7.01664859 106.99609375 7.0078125 C105.74973145 6.99733887 104.50336914 6.98686523 103.21923828 6.97607422 C100.12056494 6.88660008 100.12056494 6.88660008 98.23828125 9.203125 Z M2.23828125 13.203125 C5.96368787 15.68672941 7.86891098 15.4347117 12.3125 15.3984375 C12.99633255 15.3956076 13.6801651 15.39277771 14.38471985 15.38986206 C16.5652529 15.37868184 18.7453727 15.35358191 20.92578125 15.328125 C22.40559302 15.31809238 23.88541124 15.30896702 25.36523438 15.30078125 C28.98971725 15.27874981 32.61395891 15.24423502 36.23828125 15.203125 C30.20891526 10.06699842 23.07357909 11.02026012 15.55078125 11.015625 C14.49310547 11.00337891 13.43542969 10.99113281 12.34570312 10.97851562 C10.83266602 10.97561523 10.83266602 10.97561523 9.2890625 10.97265625 C8.36778564 10.96854736 7.44650879 10.96443848 6.49731445 10.96020508 C4.03734324 10.9857614 4.03734324 10.9857614 2.23828125 13.203125 Z M96.23828125 13.203125 C95.90828125 13.863125 95.57828125 14.523125 95.23828125 15.203125 C99.61650034 15.2771969 103.99438907 15.33168875 108.37304688 15.36791992 C109.86302034 15.383021 111.35294926 15.40350358 112.84277344 15.42944336 C114.98253355 15.46577084 117.12170691 15.48283721 119.26171875 15.49609375 C120.54997559 15.5118042 121.83823242 15.52751465 123.16552734 15.54370117 C124.17953613 15.43131104 125.19354492 15.3189209 126.23828125 15.203125 C126.89828125 14.213125 127.55828125 13.223125 128.23828125 12.203125 C125.73953759 9.70438134 118.96923881 11.01758297 115.61328125 11.015625 C114.53175781 11.00337891 113.45023438 10.99113281 112.3359375 10.97851562 C106.61279304 10.96803368 101.58924942 11.06723434 96.23828125 13.203125 Z M6.23828125 17.203125 C7.41470412 19.7647676 7.41470412 19.7647676 9.23828125 22.203125 C11.39442553 22.85634614 11.39442553 22.85634614 13.80859375 22.62109375 C14.70578125 22.59595703 15.60296875 22.57082031 16.52734375 22.54492188 C17.93113281 22.46854492 17.93113281 22.46854492 19.36328125 22.390625 C28.25540841 22.0075602 36.01902486 22.49120276 44.23828125 26.203125 C37.99956093 19.4976785 37.99956093 19.4976785 29.51098633 17.08959961 C28.43743896 17.09483643 27.3638916 17.10007324 26.2578125 17.10546875 C24.51274414 17.11030273 24.51274414 17.11030273 22.73242188 17.11523438 C20.91000977 17.12780273 20.91000977 17.12780273 19.05078125 17.140625 C17.2109668 17.14739258 17.2109668 17.14739258 15.33398438 17.15429688 C12.30203457 17.16609435 9.27018219 17.18255579 6.23828125 17.203125 Z M90.23828125 22.203125 C92.23539247 23.45406361 92.23539247 23.45406361 94.6328125 22.75 C97.82141684 22.2663547 100.54370389 22.1889207 103.75 22.28125 C104.75482422 22.30703125 105.75964844 22.3328125 106.79492188 22.359375 C108.89439263 22.42224125 110.99345397 22.50054785 113.09179688 22.59375 C114.09275391 22.614375 115.09371094 22.635 116.125 22.65625 C117.48951294 22.70507324 117.48951294 22.70507324 118.8815918 22.75488281 C121.50813874 22.41220071 121.50813874 22.41220071 123.05786133 19.67480469 C123.4473999 18.85915039 123.83693848 18.04349609 124.23828125 17.203125 C119.88447032 17.05720476 115.53129314 16.96884097 111.17578125 16.890625 C109.94666016 16.84873047 108.71753906 16.80683594 107.45117188 16.76367188 C99.9869471 16.66307585 95.75350751 16.99930825 90.23828125 22.203125 Z M12.23828125 24.203125 C12.89828125 25.523125 13.55828125 26.843125 14.23828125 28.203125 C22.48828125 28.203125 30.73828125 28.203125 39.23828125 28.203125 C35.04637651 24.01122026 31.4039862 24.1704133 25.71484375 24.10546875 C24.09762715 24.1120428 22.48042431 24.12386036 20.86328125 24.140625 C19.61611328 24.14739258 19.61611328 24.14739258 18.34375 24.15429688 C16.30856228 24.16599336 14.27341202 24.18392565 12.23828125 24.203125 Z M87.23828125 24.203125 C86.90828125 24.863125 86.57828125 25.523125 86.23828125 26.203125 C87.22828125 25.873125 88.21828125 25.543125 89.23828125 25.203125 C88.57828125 24.873125 87.91828125 24.543125 87.23828125 24.203125 Z M90.23828125 28.203125 C94.52982147 28.2898812 98.82113793 28.3434339 103.11328125 28.390625 C104.33660156 28.41576172 105.55992187 28.44089844 106.8203125 28.46679688 C107.98691406 28.47646484 109.15351563 28.48613281 110.35546875 28.49609375 C111.43425293 28.5118042 112.51303711 28.52751465 113.62451172 28.54370117 C114.48705566 28.43131104 115.34959961 28.3189209 116.23828125 28.203125 C116.89828125 27.213125 117.55828125 26.223125 118.23828125 25.203125 C116.02809909 22.99294284 111.01750744 24.01782095 108.05078125 24.015625 C107.19935547 24.00337891 106.34792969 23.99113281 105.47070312 23.97851562 C99.78516697 23.96532413 94.48669954 23.95470671 90.23828125 28.203125 Z M44.23828125 26.203125 C45.22828125 27.688125 45.22828125 27.688125 46.23828125 29.203125 C46.89828125 28.873125 47.55828125 28.543125 48.23828125 28.203125 C46.91828125 27.543125 45.59828125 26.883125 44.23828125 26.203125 Z M48.23828125 29.203125 C49.22828125 30.688125 49.22828125 30.688125 50.23828125 32.203125 C50.89828125 31.873125 51.55828125 31.543125 52.23828125 31.203125 C50.91828125 30.543125 49.59828125 29.883125 48.23828125 29.203125 Z M86.23828125 30.203125 C85.90828125 30.863125 85.57828125 31.523125 85.23828125 32.203125 C86.22828125 31.873125 87.21828125 31.543125 88.23828125 31.203125 C87.57828125 30.873125 86.91828125 30.543125 86.23828125 30.203125 Z M17.23828125 31.203125 C18.36948724 33.27904151 18.36948724 33.27904151 20.23828125 35.203125 C22.83733536 35.84476172 22.83733536 35.84476172 25.78125 35.8125 C27.3909668 35.86083984 27.3909668 35.86083984 29.03320312 35.91015625 C30.15275391 35.92433594 31.27230469 35.93851563 32.42578125 35.953125 C33.55693359 35.98277344 34.68808594 36.01242188 35.85351562 36.04296875 C38.64850958 36.11372809 41.44266653 36.16639476 44.23828125 36.203125 C41.98106128 33.08039149 40.64347757 31.43737059 36.76318359 30.79052734 C33.80403611 30.71126903 30.88337552 30.76762844 27.92578125 30.890625 C26.89904297 30.91318359 25.87230469 30.93574219 24.81445312 30.95898438 C22.28756335 31.01774925 19.7636787 31.09984651 17.23828125 31.203125 Z M89.56640625 33.21875 C89.128125 33.87359375 88.68984375 34.5284375 88.23828125 35.203125 C91.84217789 35.31913504 95.44559592 35.39030908 99.05078125 35.453125 C100.07494141 35.48664062 101.09910156 35.52015625 102.15429688 35.5546875 C103.62866211 35.57402344 103.62866211 35.57402344 105.1328125 35.59375 C106.03878174 35.61469727 106.94475098 35.63564453 107.87817383 35.65722656 C110.41598813 35.41536888 110.41598813 35.41536888 112.05737305 33.17871094 C112.44707275 32.52676758 112.83677246 31.87482422 113.23828125 31.203125 C109.82190172 31.08679987 106.40603228 31.01583603 102.98828125 30.953125 C102.02019531 30.91960938 101.05210937 30.88609375 100.0546875 30.8515625 C94.40874897 30.65581569 94.40874897 30.65581569 89.56640625 33.21875 Z M82.23828125 33.203125 C81.08199219 34.05197266 81.08199219 34.05197266 79.90234375 34.91796875 C78.89945313 35.65144531 77.8965625 36.38492188 76.86328125 37.140625 C75.86554688 37.87152344 74.8678125 38.60242187 73.83984375 39.35546875 C70.29449574 41.87341111 67.96387378 42.64482333 63.546875 42.63671875 C59.12415835 41.80605623 55.72797247 38.91732928 52.23828125 36.203125 C51.24828125 36.698125 51.24828125 36.698125 50.23828125 37.203125 C52.07350911 39.05944743 53.92760883 40.8857682 55.80078125 42.703125 C56.31447266 43.22777344 56.82816406 43.75242187 57.35742188 44.29296875 C60.1323191 46.94721827 61.82649569 48.10867877 65.64453125 48.984375 C70.85596055 47.85145559 73.50953149 44.93053888 77.17578125 41.203125 C77.85962891 40.53539062 78.54347656 39.86765625 79.24804688 39.1796875 C80.92731185 37.53565186 82.58919335 35.87733883 84.23828125 34.203125 C83.57828125 33.873125 82.91828125 33.543125 82.23828125 33.203125 Z M60.23828125 38.203125 C62.12328396 40.51875587 62.12328396 40.51875587 65.23828125 40.453125 C68.35327854 40.51875587 68.35327854 40.51875587 70.23828125 38.203125 C66.93828125 38.203125 63.63828125 38.203125 60.23828125 38.203125 Z M47.23828125 39.203125 C47.56828125 39.863125 47.89828125 40.523125 48.23828125 41.203125 C48.89828125 40.873125 49.55828125 40.543125 50.23828125 40.203125 C49.24828125 39.873125 48.25828125 39.543125 47.23828125 39.203125 Z M25.23828125 40.203125 C25.23828125 40.863125 25.23828125 41.523125 25.23828125 42.203125 C31.17828125 42.533125 37.11828125 42.863125 43.23828125 43.203125 C40.2770357 40.24187945 37.43643145 40.24354842 33.34375 40.10546875 C31.89935547 40.12287109 31.89935547 40.12287109 30.42578125 40.140625 C29.44996094 40.14964844 28.47414062 40.15867188 27.46875 40.16796875 C26.73269531 40.17957031 25.99664062 40.19117188 25.23828125 40.203125 Z M87.23828125 42.203125 C90.43763806 43.80280341 93.81694523 43.11158072 97.30078125 42.890625 C98.04650391 42.85517578 98.79222656 42.81972656 99.56054688 42.78320312 C101.45946408 42.66764686 103.35109373 42.4434645 105.23828125 42.203125 C105.56828125 41.543125 105.89828125 40.883125 106.23828125 40.203125 C104.00938629 40.14883527 101.78010654 40.11020162 99.55078125 40.078125 C98.30941406 40.05492187 97.06804687 40.03171875 95.7890625 40.0078125 C92.42590268 40.19280479 90.23972255 40.74544605 87.23828125 42.203125 Z M29.23828125 45.203125 C30.02521174 47.83057385 30.02521174 47.83057385 32.23828125 50.203125 C34.74561027 50.71166616 37.16477653 50.83363282 39.71875 50.95703125 C43.01274094 51.2787699 45.42974298 52.50322026 48.23828125 54.203125 C46.79252858 50.8297021 45.03337265 48.58717354 42.23828125 46.203125 C39.28013719 45.22127293 36.59056625 45.09500316 33.48828125 45.140625 C32.28945312 45.15416016 32.28945312 45.15416016 31.06640625 45.16796875 C30.16148438 45.18537109 30.16148438 45.18537109 29.23828125 45.203125 Z M82.23828125 52.203125 C81.04658556 54.33416987 81.04658556 54.33416987 80.23828125 56.203125 C81.16640625 55.39875 82.09453125 54.594375 83.05078125 53.765625 C86.38406172 51.32348686 88.82317746 50.87360854 92.92578125 50.703125 C97.4310094 50.56853612 97.4310094 50.56853612 100.92578125 47.640625 C101.57546875 46.4340625 101.57546875 46.4340625 102.23828125 45.203125 C93.35740029 44.2706325 87.96170542 44.98280528 82.23828125 52.203125 Z M57.23828125 48.203125 C59.38017913 51.41597183 60.57320527 52.98595733 64.30078125 54.203125 C67.24855018 54.52880739 67.24855018 54.52880739 68.921875 52.703125 C69.35628906 52.208125 69.79070312 51.713125 70.23828125 51.203125 C69.635 51.15414062 69.03171875 51.10515625 68.41015625 51.0546875 C67.6109375 50.97992188 66.81171875 50.90515625 65.98828125 50.828125 C65.199375 50.75851563 64.41046875 50.68890625 63.59765625 50.6171875 C61.15240425 50.18805387 59.38991222 49.41711862 57.23828125 48.203125 Z M36.23828125 53.203125 C36.64833795 55.28247707 36.64833795 55.28247707 38.23828125 57.203125 C40.93486577 57.89102922 43.43998315 58.02258964 46.23828125 58.203125 C43.03009881 54.31578131 43.03009881 54.31578131 38.42578125 52.890625 C37.34296875 53.0453125 37.34296875 53.0453125 36.23828125 53.203125 Z M85.80078125 55.703125 C85.28515625 56.528125 84.76953125 57.353125 84.23828125 58.203125 C87.53828125 57.543125 90.83828125 56.883125 94.23828125 56.203125 C94.56828125 55.213125 94.89828125 54.223125 95.23828125 53.203125 C89.90584082 52.59837061 89.90584082 52.59837061 85.80078125 55.703125 Z M61.23828125 56.203125 C61.23828125 56.863125 61.23828125 57.523125 61.23828125 58.203125 C63.63547557 58.88271103 63.63547557 58.88271103 66.23828125 59.203125 C66.89828125 58.543125 67.55828125 57.883125 68.23828125 57.203125 C65.92828125 56.873125 63.61828125 56.543125 61.23828125 56.203125 Z M41.23828125 59.203125 C41.54765625 59.821875 41.85703125 60.440625 42.17578125 61.078125 C42.86328125 62.453125 43.55078125 63.828125 44.23828125 65.203125 C46.54828125 65.203125 48.85828125 65.203125 51.23828125 65.203125 C48.03837617 62.46034922 45.23328743 60.5728414 41.23828125 59.203125 Z M83.61328125 61.703125 C82.79601562 62.1671875 81.97875 62.63125 81.13671875 63.109375 C80.51023437 63.4703125 79.88375 63.83125 79.23828125 64.203125 C79.23828125 64.533125 79.23828125 64.863125 79.23828125 65.203125 C84.33009708 65.66679764 84.33009708 65.66679764 88.67578125 63.328125 C90.43574473 61.37417774 90.43574473 61.37417774 90.23828125 59.203125 C87.4957693 59.203125 85.9832228 60.34887268 83.61328125 61.703125 Z M60.23828125 61.203125 C61.22828125 62.193125 62.21828125 63.183125 63.23828125 64.203125 C66.38750034 63.97029351 66.38750034 63.97029351 69.23828125 63.203125 C69.23828125 62.543125 69.23828125 61.883125 69.23828125 61.203125 C66.26828125 61.203125 63.29828125 61.203125 60.23828125 61.203125 Z " fill="#FFFFFF" transform="translate(33.76171875,0.796875)"/>
</svg>
